<svg viewBox="0 0 1200 630" width="1200" height="630" xmlns="http://www.w3.org/2000/svg" role="img" aria-label="Modwright: Minecraft mod porting and backporting, Forge 1.20.1 specialist">
  <defs>
    <radialGradient id="bg" cx="0.22" cy="0.16" r="0.95">
      <stop offset="0" stop-color="#2a1d10"/>
      <stop offset="0.5" stop-color="#1a130c"/>
      <stop offset="1" stop-color="#100e0b"/>
    </radialGradient>
    <radialGradient id="glow" cx="0.5" cy="0.5" r="0.5">
      <stop offset="0" stop-color="#c07e3c" stop-opacity="0.2"/>
      <stop offset="1" stop-color="#c07e3c" stop-opacity="0"/>
    </radialGradient>
  </defs>
  <rect width="1200" height="630" fill="url(#bg)"/>
  <ellipse cx="250" cy="120" rx="560" ry="380" fill="url(#glow)"/>
  <g transform="translate(80,66)">
    <g transform="scale(1.7)">
      <path d="M16 2.5 L27.7 9.25 L27.7 22.75 L16 29.5 L4.3 22.75 L4.3 9.25 Z" fill="#241a10"/>
      <g transform="translate(16,12.4) scale(0.3)">
        <path d="M0,-13 L26,0 L0,13 L-26,0 Z" fill="#d9a25e" stroke="#3a2718" stroke-width="2.4" stroke-linejoin="round"/>
        <path d="M-26,0 L0,13 L0,37 L-26,24 Z" fill="#b07a3c" stroke="#3a2718" stroke-width="2.4" stroke-linejoin="round"/>
        <path d="M26,0 L0,13 L0,37 L26,24 Z" fill="#854f22" stroke="#3a2718" stroke-width="2.4" stroke-linejoin="round"/>
        <g stroke="#3a2718" stroke-width="3" fill="none" stroke-linecap="round" stroke-linejoin="round"><path d="M0,-7 L0,7"/><path d="M-3.5,-3.5 L0,-7 L3.5,-3.5"/><path d="M-3.5,3.5 L0,7 L3.5,3.5"/></g>
      </g>
      <path d="M16 2.5 L27.7 9.25 L27.7 22.75 L16 29.5 L4.3 22.75 L4.3 9.25 Z" fill="none" stroke="#b9742f" stroke-width="1.6"/>
    </g>
    <text x="68" y="38" font-family="Space Grotesk, system-ui, sans-serif" font-size="42" font-weight="700" fill="#eae4d6">Modwright</text>
  </g>
  <text x="80" y="312" font-family="Space Grotesk, system-ui, sans-serif" font-size="72" font-weight="700" fill="#e8dcc4">Port, backport &amp; <tspan fill="#5fb84a">revive</tspan></text>
  <text x="80" y="394" font-family="Space Grotesk, system-ui, sans-serif" font-size="72" font-weight="700" fill="#e8dcc4"><tspan fill="#79bd45">Minecraft</tspan> mods</text>
  <text x="80" y="466" font-family="Space Grotesk, system-ui, sans-serif" font-size="40" font-weight="600" fill="#b9a78c">any version, <tspan fill="#79bd45">any loader</tspan></text>
  <text x="80" y="556" font-family="Space Grotesk, system-ui, sans-serif" font-size="26" font-weight="500" fill="#8c7a60">Forge 1.20.1 specialist  ·  from $20  ·  fixed written quote  ·  license-checked</text>
  <rect x="0" y="618" width="1200" height="12" fill="#b9742f"/>
</svg>
